<?xml version="1.0" standalone="no"?>
<!DOCTYPE svg PUBLIC "-//W3C//DTD SVG 20010904//EN"
 "http://www.w3.org/TR/2001/REC-SVG-20010904/DTD/svg10.dtd">
<svg version="1.0" xmlns="http://www.w3.org/2000/svg"
 width="700.000000pt" height="700.000000pt" viewBox="0 0 700.000000 700.000000"
 preserveAspectRatio="xMidYMid meet">
<metadata>
Created by potrace 1.14, written by Peter Selinger 2001-2017
</metadata>
<g transform="translate(0.000000,700.000000) scale(0.100000,-0.100000)"
fill="#000000" stroke="none">
<path d="M3698 5255 c-2 -2 -19 -5 -38 -8 -49 -8 -88 -16 -135 -29 -22 -5 -49
-12 -60 -14 -11 -2 -58 -12 -105 -23 -47 -11 -134 -32 -195 -46 -137 -32 -162
-42 -172 -69 -11 -32 -4 -56 29 -104 35 -51 33 -10 42 -725 5 -377 4 -394 -41
-453 -28 -37 -30 -85 -5 -107 24 -22 33 -22 157 8 58 14 116 27 128 29 12 3
74 17 137 31 63 15 124 29 135 31 104 21 268 68 318 92 150 70 221 199 212
386 -4 105 -34 186 -89 240 -37 37 -60 51 -120 70 -16 5 -13 10 20 32 126 85
178 220 149 384 -6 37 -55 145 -77 170 -25 30 -85 70 -128 85 -38 13 -154 28
-162 20z"/>
<path d="M2014 3280 l-29 -5 -1 -215 c0 -118 1 -220 3 -226 3 -8 52 -11 161
-10 202 2 221 12 227 112 4 75 -10 122 -41 136 -27 12 -29 19 -13 35 15 15 13
107 -3 132 -7 11 -24 25 -38 31 -27 11 -217 18 -266 10z m191 -141 c-6 -29
-10 -33 -45 -35 -28 -2 -30 1 -30 31 0 27 4 34 23 37 34 6 56 -9 52 -33z m22
-142 c6 -4 10 -15 8 -25 -2 -9 -4 -23 -4 -29 -1 -9 -18 -13 -51 -13 l-50 0 0
33 c0 19 2 36 6 39 7 8 77 4 91 -5z"/>
<path d="M2560 3282 c-35 -3 -36 -4 -72 -100 -50 -131 -50 -133 -52 -234 -2
-122 1 -126 66 -124 65 2 78 9 77 44 -4 69 -3 71 49 67 26 -2 50 -4 54 -4 4
-1 8 -25 10 -53 l3 -53 63 -2 c77 -2 78 -1 75 134 -1 86 -6 111 -38 198 -21
55 -43 106 -50 113 -12 13 -110 20 -185 14z m105 -174 c8 -28 15 -53 15 -55 0
-2 -20 -3 -45 -3 -51 0 -54 7 -29 70 9 22 22 40 30 40 7 0 20 -23 29 -52z"/>
<path d="M3200 3281 c-38 -6 -36 -2 -39 -111 -1 -37 -4 -42 -14 -29 -7 9 -37
44 -67 78 l-54 62 -56 -3 -55 -3 -3 -222 c-3 -251 -9 -232 82 -230 60 2 61 5
60 131 -1 108 -1 108 66 21 35 -45 42 -61 42 -100 0 -38 3 -46 21 -50 36 -8
107 0 115 12 8 12 9 430 1 436 -10 9 -67 13 -99 8z"/>
<path d="M3419 3280 l-24 -6 -3 -222 -2 -222 22 -4 c19 -4 90 -2 119 3 4 1 6
36 5 79 l-1 77 52 3 52 3 3 -83 3 -83 60 -1 c33 -1 65 2 70 7 7 5 10 51 10
113 -1 115 -13 153 -52 163 -13 3 -22 11 -20 17 3 6 17 41 33 78 15 38 25 70
22 73 -9 10 -94 12 -117 3 -12 -4 -29 -25 -37 -45 -33 -81 -55 -123 -64 -123
-12 0 -12 -3 -13 90 l-2 75 -46 5 c-25 3 -56 3 -70 0z"/>
<path d="M3865 3274 c-6 -6 -10 -33 -10 -60 l1 -49 42 -3 c24 -2 42 -8 43 -15
0 -19 1 -160 0 -183 -1 -17 -7 -20 -31 -19 -16 1 -35 -2 -41 -6 -15 -9 -19
-97 -5 -108 15 -11 295 -10 302 1 4 5 7 30 8 55 2 50 -11 63 -56 58 l-28 -3 0
109 0 109 40 0 c31 0 40 4 41 18 5 72 3 95 -8 99 -28 11 -287 8 -298 -3z"/>
<path d="M4264 3277 c-19 -11 -21 -446 -1 -449 35 -4 127 -4 128 1 1 3 3 33 5
66 1 33 3 63 3 67 1 4 29 8 64 10 l62 3 3 54 c2 33 -1 57 -8 61 -7 4 -36 6
-65 5 -48 -3 -53 -1 -57 19 -8 42 -1 46 93 46 l89 0 1 38 c1 42 -1 75 -6 81
-8 7 -297 6 -311 -2z"/>
<path d="M4658 3279 c-22 -5 -23 -9 -23 -100 l0 -96 57 -75 c50 -67 57 -82 60
-129 l3 -54 70 0 70 0 3 49 c3 41 12 62 51 116 72 98 75 106 73 199 0 45 -3
85 -5 88 -8 7 -112 7 -124 0 -6 -4 -11 -37 -12 -74 -1 -66 -22 -122 -48 -130
-6 -2 -21 10 -34 28 -18 25 -23 47 -24 101 -1 37 -4 71 -8 74 -8 8 -80 10
-109 3z"/>
<path d="M2495 1848 c-3 -8 -5 -48 -3 -89 2 -56 7 -74 18 -77 13 -2 15 11 12
80 -4 81 -15 117 -27 86z"/>
<path d="M2575 1852 c-6 -4 -10 -43 -10 -87 0 -77 1 -80 25 -83 20 -3 22 -1
12 10 -6 8 -12 48 -14 91 -2 50 -7 74 -13 69z"/>
<path d="M3737 1853 c-4 -3 -7 -15 -7 -26 0 -15 -5 -18 -23 -13 -40 10 -60
-14 -59 -69 2 -66 2 -66 89 -64 21 0 22 5 22 90 0 82 -5 100 -22 82z m-7 -99
c0 -19 1 -37 3 -41 1 -5 -12 -9 -29 -11 -30 -3 -30 -2 -30 40 1 28 6 45 16 49
26 11 40 -2 40 -37z"/>
<path d="M2371 1827 c-5 -13 -15 -44 -21 -68 -6 -24 -13 -52 -16 -61 -3 -11 0
-18 9 -18 8 0 17 8 20 19 3 12 13 19 31 19 16 0 31 -8 37 -19 5 -11 16 -19 23
-19 10 0 6 21 -14 83 -28 88 -52 110 -69 64z m48 -79 c1 -5 -10 -8 -23 -8 -23
0 -24 1 -13 42 l10 42 13 -34 c7 -19 13 -38 13 -42z"/>
<path d="M2696 1842 c-3 -6 3 -31 14 -57 11 -26 20 -60 20 -76 0 -19 5 -29 15
-29 10 0 15 10 15 30 0 16 11 54 24 85 18 39 21 55 12 55 -7 0 -21 -19 -32
-42 l-18 -41 -17 36 c-19 44 -25 51 -33 39z"/>
<path d="M3197 1843 c-4 -3 -7 -42 -7 -85 0 -64 3 -78 16 -78 11 0 15 8 14 28
-1 15 -2 41 -1 57 1 29 2 28 34 -25 50 -82 64 -78 63 17 -1 91 -19 114 -26 33
l-5 -55 -35 58 c-34 57 -41 63 -53 50z"/>
<path d="M3883 1842 c-17 -11 -15 -162 3 -162 11 0 14 19 14 85 0 47 -1 85 -2
85 -2 0 -8 -4 -15 -8z"/>
<path d="M4146 1833 c-2 -10 -4 -48 -4 -85 0 -52 3 -68 14 -68 9 0 14 12 14
35 0 33 2 35 35 35 33 0 35 -2 35 -35 0 -23 5 -35 13 -35 19 0 18 161 -1 168
-8 2 -12 -9 -12 -35 0 -37 -1 -39 -35 -41 -35 -3 -35 -2 -35 38 0 41 -15 55
-24 23z"/>
<path d="M2834 1805 c-20 -14 -25 -98 -7 -116 18 -18 75 -14 89 6 15 20 19 82
6 102 -11 17 -68 23 -88 8z m66 -55 c0 -49 -1 -50 -30 -50 -29 0 -30 1 -28 44
1 40 4 45 27 49 14 2 27 5 29 6 1 0 2 -21 2 -49z"/>
<path d="M3390 1812 c-23 -8 -30 -23 -30 -64 0 -50 26 -77 68 -70 43 6 41 22
-3 22 -24 0 -35 5 -35 15 0 8 3 15 8 16 66 7 88 29 64 66 -9 14 -50 23 -72 15z
m54 -31 c10 -15 -13 -32 -36 -29 -22 2 -24 6 -17 25 6 15 13 20 29 16 11 -3
22 -8 24 -12z"/>
<path d="M3533 1810 c-26 -10 -34 -34 -29 -80 5 -41 26 -58 66 -52 46 7 47 22
1 22 -30 0 -41 4 -41 15 0 8 9 16 20 16 46 3 60 14 60 45 0 17 -8 27 -26 34
-14 6 -26 10 -27 9 -1 0 -12 -4 -24 -9z m55 -39 c-2 -9 -15 -17 -31 -19 -21
-3 -27 1 -27 17 0 20 24 31 48 23 7 -3 12 -12 10 -21z"/>
<path d="M3962 1809 c-18 -7 -23 -15 -20 -36 2 -22 9 -29 31 -31 31 -4 47 -29
27 -42 -7 -5 -24 -4 -37 1 -18 6 -23 5 -23 -6 0 -8 5 -16 10 -16 6 -1 16 -2
23 -3 6 -1 25 2 40 7 23 8 28 14 25 35 -2 20 -11 29 -35 36 -44 12 -46 45 -3
41 32 -3 41 9 14 19 -19 7 -23 7 -52 -5z"/>
<path d="M4333 1809 c-23 -8 -26 -21 -25 -83 1 -42 16 -50 80 -47 38 2 24 21
-16 21 -28 0 -39 4 -39 15 0 8 7 15 16 16 25 1 52 7 58 13 6 6 7 55 2 60 -12
10 -57 13 -76 5z m55 -38 c-2 -9 -15 -17 -28 -19 -20 -2 -26 2 -27 17 -1 11 6
21 15 24 26 5 43 -4 40 -22z"/>
<path d="M4561 1804 c-16 -11 -21 -26 -21 -57 0 -23 4 -47 8 -53 11 -19 92
-22 92 -4 0 6 -15 10 -34 10 -58 0 -57 28 1 35 14 1 29 9 34 16 11 18 11 46 1
53 -21 13 -62 13 -81 0z m62 -40 c-7 -19 -49 -18 -57 1 -4 10 2 19 17 24 26
10 48 -4 40 -25z"/>
<path d="M2970 1750 c0 -67 14 -83 62 -69 16 4 32 7 36 6 4 -1 7 26 7 61 1 44
-3 62 -12 62 -9 0 -13 -17 -13 -54 0 -60 -5 -68 -36 -56 -17 7 -20 16 -19 59
1 36 -2 51 -12 51 -9 0 -13 -17 -13 -60z"/>
<path d="M4458 1776 c-5 -50 2 -96 16 -96 9 0 12 14 11 46 -2 35 2 48 16 57
27 17 23 26 -10 25 -25 -1 -30 -5 -33 -32z"/>
</g>
</svg>
