<svg xmlns="http://www.w3.org/2000/svg" width="512" height="512" viewBox="0 0 512 512" style="overflow: visible;"><g transform="matrix(0.9708998650312424, 0, 0, 0.9708998650312424, 7.449631452560425, -3.3549132347106934)" data-uid="o_f46agkkd8_5"><g fill="#fdb62f" transform="matrix(0.7773744463920593, 0, 0, 0.7773744463920593, 76.43708801269531, -37.76043701171875)" data-uid="o_f46agkkd8_6"><path text="B" fill="#fdb62f" space="preserve" text-anchor="middle" offset="0.5" font-scale="contain" font-size="48" font-family="Shrikhand" transform="matrix(3.196810245513916, -0.7371370196342468, 0.9640911221504211, 4.181063175201416, 246.2502899169922, 363.50341796875)" font-weight="400" font-style="normal" data-fl-textpath="" data-uid="o_f46agkkd8_7" d="M 8.956-31.97Q 12.216000000000001-31.97  14.636-30.98Q 17.066-30  18.336000000000002-28.3Q 19.605999999999998-26.59  19.605999999999998-24.38L 19.605999999999998-24.38Q 19.605999999999998-23.14  19.276-22.08L 19.276-22.08Q 17.876-17.23  11.256-15.94L 11.256-15.94Q 13.556000000000001-15.26  14.906000000000002-13.7Q 16.246-12.14  16.246-9.84L 16.246-9.84Q 16.246-8.78  15.866000000000003-7.34L 15.866000000000003-7.34Q 14.806000000000001-3.6  11.616-1.8Q 8.426000000000002 0  2.565999999999999 0L 2.565999999999999 0L-17.404 0Q-18.404 0-18.964-0.34Q-19.514-0.67-19.514-1.25L-19.514-1.25Q-19.514-1.54-19.364-1.87L-19.364-1.87Q-19.174-2.4-18.744-2.69Q-18.314-2.98 -18.214-3.02L-18.214-3.02Q-17.444-3.5 -16.964-4.01Q-16.483999999999998-4.51 -16.154-5.66L-16.154-5.66L-10.294-26.35Q-10.104-26.98 -10.104-27.55L-10.104-27.55Q-10.104-28.08 -10.274-28.44Q-10.443999999999999-28.8 -10.724-29.28L-10.724-29.28Q-11.164-29.9 -11.164-30.29L-11.164-30.29Q-11.164-30.43 -11.064-30.82L-11.064-30.82Q-10.873999999999999-31.44 -10.224-31.7Q-9.574-31.97 -8.234-31.97L-8.234-31.97L 8.956-31.97ZM 6.795999999999999-23.18Q 7.126000000000001-24.24  7.126000000000001-25.15L 7.126000000000001-25.15Q 7.126000000000001-27.65  4.295999999999999-27.65L 4.295999999999999-27.65L 2.1359999999999992-27.65L-0.4039999999999999-18.67L 1.7059999999999995-18.67Q 3.716000000000001-18.67  4.896000000000001-19.66Q 6.0760000000000005-20.64  6.795999999999999-23.18L 6.795999999999999-23.18ZM 3.2860000000000014-9.07Q 3.6260000000000012-10.22  3.6260000000000012-11.18L 3.6260000000000012-11.18Q 3.6260000000000012-13.78  0.6460000000000008-13.78L 0.6460000000000008-13.78L-1.7539999999999978-13.78L-4.484-4.32L-2.0440000000000005-4.32Q 0.0259999999999998-4.32  1.2759999999999998-5.35Q 2.516000000000002-6.38  3.2860000000000014-9.07L 3.2860000000000014-9.07Z"></path><path transform="matrix(0.5039106011390686, 0, 0, 1.154443621635437, 210.66490173339844, 237.6300048828125)" fill="#fdb62f" data-type="rect" data-x="0" data-y="0" data-width="100" data-height="100" d="M0 0H100 V100 H0 Z" data-uid="o_f46agkkd8_8"></path></g><g transform="matrix(2.9499104022979736, 0, 0, 3.813706874847412, 218.92279052734375, 147.20114135742188)" fill="rgba(255,255,255,1)" data-uid="o_f46agkkd8_9"><path fill="rgba(255,255,255,1)" d="M11 22a1 1 0 0 1-1-1v-6H5a1 1 0 0 1-.809-1.588l8-11A1 1 0 0 1 14 3v6h5a1 1 0 0 1 .809 1.588l-8 11A1 1 0 0 1 11 22Z" transform="matrix(1, 0, 0, 1, 0, 0)" data-uid="o_f46agkkd8_10"></path></g></g><path text="bankify" fill="#ffffff" space="preserve" text-anchor="middle" offset="0.5" font-scale="contain" font-size="48" font-family="Bungee" transform="matrix(0.9708998650312424, 0, 0, 0.9708998650312424, 255.69901943206787, 305.51595878601074)" font-weight="400" font-style="normal" data-fl-textpath="" data-uid="o_f46agkkd8_11" d="M-93.698 0L-93.698 0L-112.12799999999999 0Q-113.038 0 -113.448-0.41Q-113.85799999999999-0.82 -113.85799999999999-1.73L-113.85799999999999-1.73L-113.85799999999999-32.83Q-113.85799999999999-33.74 -113.448-34.15Q-113.038-34.56 -112.12799999999999-34.56L-112.12799999999999-34.56L-96.81799999999998-34.56Q-92.10799999999999-34.56 -89.85799999999999-32.76Q-87.59799999999998-30.96 -87.59799999999998-27.22L-87.59799999999998-27.22L-87.59799999999998-24.91Q-87.59799999999998-22.9 -88.29799999999999-21.62Q-88.988-20.35 -90.428-19.73L-90.428-19.73Q-87.35799999999999-19.44 -85.868-17.62Q-84.38799999999999-15.79 -84.38799999999999-12.29L-84.38799999999999-12.29L-84.38799999999999-7.87Q-84.38799999999999-3.84 -86.66799999999999-1.92Q-88.948 0 -93.698 0ZM-98.978-26.4L-103.05799999999999-26.4L-103.05799999999999-21.22L-98.978-21.22Q-98.06799999999998-21.22 -97.60799999999999-21.7Q-97.148-22.18 -97.148-23.14L-97.148-23.14L-97.148-24.48Q-97.148-25.44 -97.60799999999999-25.92Q-98.06799999999998-26.4 -98.978-26.4L-98.978-26.4ZM-96.81799999999998-13.82L-103.05799999999999-13.82L-103.05799999999999-8.16L-96.81799999999998-8.16Q-95.90799999999999-8.16 -95.448-8.64Q-94.988-9.12 -94.988-10.08L-94.988-10.08L-94.988-11.95Q-94.988-12.91 -95.448-13.37Q-95.90799999999999-13.82 -96.81799999999998-13.82L-96.81799999999998-13.82ZM-66.52799999999999-24.48L-66.52799999999999-24.48L-68.788-17.18L-61.24799999999999-17.18L-63.507999999999996-24.48Q-63.69799999999999-24.91 -63.907999999999994-25.1Q-64.128-25.3 -64.41799999999999-25.3L-64.41799999999999-25.3L-65.618-25.3Q-65.90799999999999-25.3 -66.118-25.1Q-66.338-24.91 -66.52799999999999-24.48ZM-69.268-8.45L-69.268-1.73Q-69.268-0.82 -69.66799999999999-0.41Q-70.078 0 -70.988 0L-70.988 0L-78.048 0Q-78.958 0 -79.368-0.41Q-79.77799999999999-0.82 -79.77799999999999-1.73L-79.77799999999999-1.73L-79.77799999999999-14.4Q-79.77799999999999-15.84 -79.318-17.71Q-78.868-19.58 -77.908-22.08L-77.908-22.08L-73.728-32.98Q-73.43799999999999-33.79 -72.838-34.18Q-72.238-34.56 -71.27799999999999-34.56L-71.27799999999999-34.56L-58.367999999999995-34.56Q-57.458-34.56 -56.85799999999999-34.18Q-56.257999999999996-33.79 -55.967999999999996-32.98L-55.967999999999996-32.98L-51.788-22.08Q-50.827999999999996-19.58 -50.378-17.71Q-49.91799999999999-15.84 -49.91799999999999-14.4L-49.91799999999999-14.4L-49.91799999999999-1.73Q-49.91799999999999-0.82 -50.327999999999996-0.41Q-50.738 0 -51.647999999999996 0L-51.647999999999996 0L-58.897999999999996 0Q-59.85799999999999 0 -60.30799999999999-0.41Q-60.767999999999994-0.82 -60.767999999999994-1.73L-60.767999999999994-1.73L-60.767999999999994-8.45L-69.268-8.45ZM-35.087999999999994 0L-35.087999999999994 0L-42.288 0Q-43.19799999999999 0 -43.608-0.41Q-44.017999999999994-0.82 -44.017999999999994-1.73L-44.017999999999994-1.73L-44.017999999999994-32.83Q-44.017999999999994-33.74 -43.608-34.15Q-43.19799999999999-34.56 -42.288-34.56L-42.288-34.56L-37.297999999999995-34.56Q-36.388-34.56 -35.738-34.27Q-35.087999999999994-33.98 -34.467999999999996-33.26L-34.467999999999996-33.26L-25.147999999999996-22.61L-25.147999999999996-32.83Q-25.147999999999996-33.74 -24.747999999999998-34.15Q-24.337999999999997-34.56 -23.427999999999997-34.56L-23.427999999999997-34.56L-16.227999999999994-34.56Q-15.307999999999993-34.56 -14.907999999999994-34.15Q-14.497999999999998-33.74 -14.497999999999998-32.83L-14.497999999999998-32.83L-14.497999999999998-1.73Q-14.497999999999998-0.82 -14.907999999999994-0.41Q-15.307999999999993 0 -16.227999999999994 0L-16.227999999999994 0L-23.427999999999997 0Q-24.337999999999997 0 -24.747999999999998-0.41Q-25.147999999999996-0.82 -25.147999999999996-1.73L-25.147999999999996-1.73L-25.147999999999996-7.63L-33.358-17.57L-33.358-1.73Q-33.358-0.82 -33.767999999999994-0.41Q-34.178 0 -35.087999999999994 0ZM 1.296000000000003 0L 1.296000000000003 0L-6.1439999999999975 0Q-7.053999999999998 0 -7.463999999999997-0.41Q-7.873999999999997-0.82 -7.873999999999997-1.73L-7.873999999999997-1.73L-7.873999999999997-32.83Q-7.873999999999997-33.74 -7.463999999999997-34.15Q-7.053999999999998-34.56 -6.1439999999999975-34.56L-6.1439999999999975-34.56L 1.296000000000003-34.56Q 2.206000000000003-34.56  2.616000000000003-34.15Q 3.0260000000000034-33.74  3.0260000000000034-32.83L 3.0260000000000034-32.83L 3.0260000000000034-21.79L 4.9460000000000015-21.79L 9.886000000000003-32.98Q 10.226000000000003-33.84  10.796000000000003-34.2Q 11.376000000000001-34.56  12.286000000000001-34.56L 12.286000000000001-34.56L 19.676000000000002-34.56Q 20.496000000000002-34.56  20.786-34.15Q 21.076-33.74  20.736000000000004-32.98L 20.736000000000004-32.98L 15.836000000000002-21.79Q 18.526000000000003-21.65  20.136000000000003-19.9Q 21.746000000000002-18.14  21.746000000000002-15.26L 21.746000000000002-15.26L 21.746000000000002-1.73Q 21.746000000000002-0.82  21.336000000000006-0.41Q 20.926000000000002 0  20.016000000000002 0L 20.016000000000002 0L 12.626000000000001 0Q 11.716000000000001 0  11.306000000000001-0.41Q 10.896-0.82  10.896-1.73L 10.896-1.73L 10.896-11.09Q 10.896-11.86  10.516000000000002-12.29Q 10.126000000000001-12.72  9.356000000000002-12.72L 9.356000000000002-12.72L 3.0260000000000034-12.72L 3.0260000000000034-1.73Q 3.0260000000000034-0.82  2.616000000000003-0.41Q 2.206000000000003 0  1.296000000000003 0ZM 49.34400000000001 0L 28.894000000000005 0Q 27.984000000000005 0  27.574000000000005-0.41Q 27.164000000000005-0.82  27.164000000000005-1.73L 27.164000000000005-1.73L 27.164000000000005-7.44Q 27.164000000000005-8.35  27.574000000000005-8.76Q 27.984000000000005-9.17  28.894000000000005-9.17L 28.894000000000005-9.17L 33.644000000000005-9.17L 33.644000000000005-25.3L 28.894000000000005-25.3Q 27.984000000000005-25.3  27.574000000000005-25.7Q 27.164000000000005-26.11  27.164000000000005-27.02L 27.164000000000005-27.02L 27.164000000000005-32.83Q 27.164000000000005-33.74  27.574000000000005-34.15Q 27.984000000000005-34.56  28.894000000000005-34.56L 28.894000000000005-34.56L 49.34400000000001-34.56Q 50.254000000000005-34.56  50.664-34.15Q 51.074000000000005-33.74  51.074000000000005-32.83L 51.074000000000005-32.83L 51.074000000000005-27.02Q 51.074000000000005-26.11  50.664-25.7Q 50.254000000000005-25.3  49.34400000000001-25.3L 49.34400000000001-25.3L 44.684000000000005-25.3L 44.684000000000005-9.17L 49.34400000000001-9.17Q 50.254000000000005-9.17  50.664-8.76Q 51.074000000000005-8.35  51.074000000000005-7.44L 51.074000000000005-7.44L 51.074000000000005-1.73Q 51.074000000000005-0.82  50.664-0.41Q 50.254000000000005 0  49.34400000000001 0L 49.34400000000001 0ZM 66.144 0L 66.144 0L 58.70400000000001 0Q 57.79400000000001 0  57.38400000000001-0.41Q 56.97400000000001-0.82  56.97400000000001-1.73L 56.97400000000001-1.73L 56.97400000000001-32.83Q 56.97400000000001-33.74  57.38400000000001-34.15Q 57.79400000000001-34.56  58.70400000000001-34.56L 58.70400000000001-34.56L 80.114-34.56Q 81.024-34.56  81.43400000000001-34.15Q 81.84400000000001-33.74  81.84400000000001-32.83L 81.84400000000001-32.83L 81.84400000000001-27.12Q 81.84400000000001-26.21  81.43400000000001-25.8Q 81.024-25.39  80.114-25.39L 80.114-25.39L 67.87400000000001-25.39L 67.87400000000001-20.4L 76.224-20.4Q 77.13400000000001-20.4  77.54400000000001-19.99Q 77.95400000000001-19.58  77.95400000000001-18.67L 77.95400000000001-18.67L 77.95400000000001-12.91Q 77.95400000000001-12  77.54400000000001-11.59Q 77.13400000000001-11.18  76.224-11.18L 76.224-11.18L 67.87400000000001-11.18L 67.87400000000001-1.73Q 67.87400000000001-0.82  67.46400000000001-0.41Q 67.054 0  66.144 0ZM 104.158 0L 104.158 0L 96.388 0Q 95.468 0  95.068-0.41Q 94.658-0.82  94.658-1.73L 94.658-1.73L 94.658-7.87L 87.308-17.71Q 86.208-19.2  85.848-20.3Q 85.488-21.41  85.488-23.62L 85.488-23.62L 85.488-32.83Q 85.488-33.74  85.898-34.15Q 86.308-34.56  87.218-34.56L 87.218-34.56L 94.608-34.56Q 95.518-34.56  95.928-34.15Q 96.33800000000001-33.74  96.33800000000001-32.83L 96.33800000000001-32.83L 96.33800000000001-24.96Q 96.33800000000001-24.48  96.388-23.95Q 96.428-23.42  96.768-22.94L 96.768-22.94L 98.97800000000001-19.49Q 99.218-19.06  99.47800000000001-18.86Q 99.748-18.67  100.128-18.67L 100.128-18.67L 100.608-18.67Q 100.988-18.67  101.25800000000001-18.86Q 101.518-19.06  101.75800000000001-19.49L 101.75800000000001-19.49L 103.968-22.94Q 104.308-23.42  104.348-23.95Q 104.398-24.48  104.398-24.96L 104.398-24.96L 104.398-32.83Q 104.398-33.74  104.808-34.15Q 105.218-34.56  106.128-34.56L 106.128-34.56L 113.278-34.56Q 114.188-34.56  114.598-34.15Q 115.00800000000001-33.74  115.00800000000001-32.83L 115.00800000000001-32.83L 115.00800000000001-23.62Q 115.00800000000001-21.41  114.628-20.3Q 114.238-19.2  113.188-17.71L 113.188-17.71L 105.888-7.82L 105.888-1.73Q 105.888-0.82  105.47800000000001-0.41Q 105.068 0  104.158 0Z"></path><path text="All You Need Is Here" fill="#fdb62f" space="preserve" text-anchor="middle" offset="0.5" font-scale="contain" font-size="48" font-family="Changa" transform="matrix(0.40625329315662384, 0, 0, 0.40625329315662384, 255.6099910736084, 389.16343879699707)" font-weight="400" font-style="normal" data-fl-textpath="" data-uid="o_f46agkkd8_13" d="M-190.078 0L-192.048-6.72L-203.518-6.72L-205.488 0L-210.288 0L-201.40800000000002-30L-194.15800000000002-30L-185.27800000000002 0L-190.078 0ZM-202.418-10.51L-193.14800000000002-10.51L-197.568-25.58L-197.99800000000002-25.58L-202.418-10.51ZM-175.68-3.55Q-174.72-3.41 -173.47-3.31L-173.47-3.31L-173.76-0.05Q-175.54 0.48 -176.93 0.48L-176.93 0.48Q-178.75 0.48 -179.62-0.41Q-180.48-1.3 -180.48-3.12L-180.48-3.12L-180.48-31.2L-175.68-31.92L-175.68-3.55ZM-162.672-3.55Q-161.712-3.41 -160.462-3.31L-160.462-3.31L-160.75199999999998-0.05Q-162.53199999999998 0.48 -163.922 0.48L-163.922 0.48Q-165.742 0.48 -166.612-0.41Q-167.47199999999998-1.3 -167.47199999999998-3.12L-167.47199999999998-3.12L-167.47199999999998-31.2L-162.672-31.92L-162.672-3.55ZM-128.49399999999997-30L-123.50399999999999-30L-132.384-10.32L-132.384 0L-137.18399999999997 0L-137.18399999999997-10.32L-146.064-30L-141.07399999999998-30L-134.784-15.31L-128.49399999999997-30ZM-112.12399999999998 0.48Q-116.44399999999997 0.48 -118.63399999999997-0.55Q-120.81399999999998-1.58 -121.68399999999998-4.22Q-122.54399999999998-6.86 -122.54399999999998-12L-122.54399999999998-12Q-122.54399999999998-17.14 -121.68399999999998-19.78Q-120.81399999999998-22.42 -118.63399999999997-23.45Q-116.44399999999997-24.48 -112.12399999999998-24.48L-112.12399999999998-24.48Q-107.76399999999998-24.48 -105.60399999999998-23.45Q-103.44399999999997-22.42 -102.57399999999998-19.8Q-101.71399999999997-17.18 -101.71399999999997-12L-101.71399999999997-12Q-101.71399999999997-6.86 -102.57399999999998-4.22Q-103.44399999999997-1.58 -105.62399999999998-0.55Q-107.80399999999997 0.48 -112.12399999999998 0.48L-112.12399999999998 0.48ZM-117.55399999999997-3.46L-109.00399999999998-3.46Q-107.61399999999998-3.46 -107.16399999999997-3.7Q-106.70399999999998-3.94 -106.70399999999998-4.66L-106.70399999999998-4.66L-106.70399999999998-20.54L-115.24399999999997-20.54Q-116.64399999999998-20.54 -117.09399999999998-20.3Q-117.55399999999997-20.06 -117.55399999999997-19.34L-117.55399999999997-19.34L-117.55399999999997-3.46ZM-75.50199999999998-24L-75.50199999999998 0L-77.71199999999997 0L-79.01199999999997-2.4Q-80.93199999999999-0.91 -83.21199999999997-0.22Q-85.49199999999998 0.48 -88.41199999999998 0.48L-88.41199999999998 0.48Q-91.68199999999997 0.48 -93.21199999999997-0.74Q-94.75199999999998-1.97 -94.75199999999998-4.56L-94.75199999999998-4.56L-94.75199999999998-24L-89.95199999999998-24L-89.95199999999998-3.22L-84.38199999999998-3.22Q-82.03199999999998-3.22 -81.17199999999998-3.79Q-80.30199999999998-4.37 -80.30199999999998-6L-80.30199999999998-6L-80.30199999999998-24L-75.50199999999998-24ZM-54.62399999999998 0L-54.62399999999998-30L-49.963999999999984-30L-38.353999999999985-11.28Q-37.633999999999986-10.03 -37.393999999999984-9.53Q-37.15399999999998-9.02 -37.103999999999985-8.3L-37.103999999999985-8.3L-36.81399999999998-8.3L-36.81399999999998-30L-32.01399999999998-30L-32.01399999999998 0L-36.67399999999998 0L-48.283999999999985-18.72Q-49.003999999999984-19.97 -49.243999999999986-20.47Q-49.48399999999998-20.98 -49.533999999999985-21.7L-49.533999999999985-21.7L-49.823999999999984-21.7L-49.823999999999984 0L-54.62399999999998 0ZM-14.395999999999981-3.31Q-12.435999999999982-3.31 -10.555999999999983-3.58Q-8.685999999999982-3.84 -6.095999999999982-4.46L-6.095999999999982-4.46L-5.475999999999981-0.96Q-7.245999999999981-0.29 -9.865999999999982 0.1Q-12.475999999999981 0.48 -15.265999999999982 0.48L-15.265999999999982 0.48Q-19.005999999999982 0.48 -20.97599999999998-0.6Q-22.945999999999984-1.68 -23.755999999999982-4.32Q-24.575999999999983-6.96 -24.575999999999983-12L-24.575999999999983-12Q-24.575999999999983-16.85 -23.63599999999998-19.51Q-22.70599999999998-22.18 -20.54599999999998-23.33Q-18.38599999999998-24.48 -14.445999999999982-24.48L-14.445999999999982-24.48Q-10.555999999999983-24.48 -8.51599999999998-23.86Q-6.475999999999981-23.23 -5.665999999999983-21.72Q-4.845999999999982-20.21 -4.845999999999982-17.28L-4.845999999999982-17.28Q-4.845999999999982-13.78 -5.85599999999998-12.24Q-6.865999999999982-10.7 -9.815999999999981-10.18Q-12.765999999999982-9.65 -19.53599999999998-9.65L-19.53599999999998-9.65L-19.53599999999998-3.84Q-17.615999999999982-3.31 -14.395999999999981-3.31L-14.395999999999981-3.31ZM-15.555999999999981-20.54Q-17.85599999999998-20.54 -18.695999999999984-19.97Q-19.53599999999998-19.39 -19.53599999999998-17.76L-19.53599999999998-17.76L-19.53599999999998-12.77L-13.195999999999982-12.77Q-10.845999999999982-12.77 -10.005999999999982-13.34Q-9.165999999999983-13.92 -9.165999999999983-15.55L-9.165999999999983-15.55L-9.165999999999983-20.54L-15.555999999999981-20.54ZM 11.572000000000019-3.31Q 13.532000000000018-3.31  15.412000000000017-3.58Q 17.282000000000018-3.84  19.872000000000018-4.46L 19.872000000000018-4.46L 20.49200000000002-0.96Q 18.72200000000002-0.29  16.102000000000018 0.1Q 13.492000000000019 0.48  10.702000000000018 0.48L 10.702000000000018 0.48Q 6.9620000000000175 0.48  4.992000000000019-0.6Q 3.022000000000018-1.68  2.2120000000000184-4.32Q 1.3920000000000181-6.96  1.3920000000000181-12L 1.3920000000000181-12Q 1.3920000000000181-16.85  2.332000000000018-19.51Q 3.262000000000018-22.18  5.422000000000018-23.33Q 7.5820000000000185-24.48  11.522000000000018-24.48L 11.522000000000018-24.48Q 15.412000000000017-24.48  17.45200000000002-23.86Q 19.49200000000002-23.23  20.302000000000017-21.72Q 21.122000000000018-20.21  21.122000000000018-17.28L 21.122000000000018-17.28Q 21.122000000000018-13.78  20.11200000000002-12.24Q 19.102000000000018-10.7  16.15200000000002-10.18Q 13.202000000000018-9.65  6.432000000000018-9.65L 6.432000000000018-9.65L 6.432000000000018-3.84Q 8.352000000000018-3.31  11.572000000000019-3.31L 11.572000000000019-3.31ZM 10.412000000000019-20.54Q 8.112000000000018-20.54  7.272000000000018-19.97Q 6.432000000000018-19.39  6.432000000000018-17.76L 6.432000000000018-17.76L 6.432000000000018-12.77L 12.772000000000018-12.77Q 15.122000000000018-12.77  15.962000000000018-13.34Q 16.802000000000017-13.92  16.802000000000017-15.55L 16.802000000000017-15.55L 16.802000000000017-20.54L 10.412000000000019-20.54ZM 42.670000000000016-31.92L 47.47000000000001-32.5L 47.47000000000001 0L 45.26000000000002 0L 44.21000000000002-1.92Q 43.250000000000014-0.43  41.45000000000002 0.14Q 39.65000000000002 0.72  36.48000000000002 0.72L 36.48000000000002 0.72Q 32.640000000000015 0.72  30.740000000000016-0.29Q 28.85000000000002-1.3  28.10000000000002-3.94Q 27.360000000000017-6.58  27.360000000000017-12L 27.360000000000017-12Q 27.360000000000017-17.09  28.08000000000002-19.73Q 28.80000000000002-22.37  30.58000000000002-23.42Q 32.350000000000016-24.48  35.81000000000002-24.48L 35.81000000000002-24.48Q 38.26000000000002-24.48  39.91000000000002-24.22Q 41.57000000000002-23.95  42.670000000000016-23.33L 42.670000000000016-23.33L 42.670000000000016-31.92ZM 42.670000000000016-4.42L 42.670000000000016-20.54L 34.61000000000002-20.54Q 33.31000000000002-20.54  32.86000000000002-20.3Q 32.40000000000002-20.06  32.40000000000002-19.34L 32.40000000000002-19.34L 32.40000000000002-3.22L 40.46000000000002-3.22Q 41.76000000000002-3.22  42.22000000000001-3.46Q 42.670000000000016-3.7  42.670000000000016-4.42L 42.670000000000016-4.42ZM 68.11200000000002-30L 72.91200000000002-30L 72.91200000000002 0L 68.11200000000002 0L 68.11200000000002-30ZM 79.92200000000001-17.57Q 79.92200000000001-21.26  82.10200000000002-22.99Q 84.29200000000002-24.72  88.99200000000002-24.72L 88.99200000000002-24.72Q 93.17200000000001-24.72  96.96200000000002-23.66L 96.96200000000002-23.66L 96.29200000000002-20.16Q 95.09200000000001-20.5  93.45200000000001-20.71Q 91.82200000000002-20.93  90.43200000000002-20.93L 90.43200000000002-20.93Q 87.55200000000002-20.93  84.96200000000002-20.5L 84.96200000000002-20.5L 84.96200000000002-14.83Q 90.72200000000001-14.02  93.43200000000002-13.18Q 96.14200000000001-12.34  97.15200000000002-10.92Q 98.162-9.5  98.162-6.77L 98.162-6.77Q 98.162-4.03  97.17200000000001-2.4Q 96.19200000000001-0.77  93.98200000000001-0.02Q 91.77200000000002 0.72  88.08200000000001 0.72L 88.08200000000001 0.72Q 83.95200000000001 0.72  79.39200000000001-0.67L 79.39200000000001-0.67L 80.16200000000002-4.51Q 83.85200000000002-3.07  88.03200000000001-3.07L 88.03200000000001-3.07Q 89.47200000000001-3.07  90.57200000000002-3.22Q 91.68200000000002-3.36  93.12200000000001-3.74L 93.12200000000001-3.74L 93.12200000000001-9.41Q 86.93200000000002-10.27  84.29200000000002-11.09Q 81.65200000000002-11.9  80.78200000000001-13.27Q 79.92200000000001-14.64  79.92200000000001-17.57L 79.92200000000001-17.57ZM 133.92000000000002-30L 138.72000000000003-30L 138.72000000000003 0L 133.92000000000002 0L 133.92000000000002-12.96L 121.44000000000003-12.96L 121.44000000000003 0L 116.64000000000001 0L 116.64000000000001-30L 121.44000000000003-30L 121.44000000000003-16.75L 133.92000000000002-16.75L 133.92000000000002-30ZM 156.10000000000002-3.31Q 158.06000000000003-3.31  159.94000000000003-3.58Q 161.81000000000003-3.84  164.40000000000003-4.46L 164.40000000000003-4.46L 165.02-0.96Q 163.25000000000003-0.29  160.63000000000002 0.1Q 158.02 0.48  155.23000000000002 0.48L 155.23000000000002 0.48Q 151.49 0.48  149.52-0.6Q 147.55-1.68  146.74-4.32Q 145.92000000000002-6.96  145.92000000000002-12L 145.92000000000002-12Q 145.92000000000002-16.85  146.86-19.51Q 147.79000000000002-22.18  149.95000000000002-23.33Q 152.11-24.48  156.05-24.48L 156.05-24.48Q 159.94000000000003-24.48  161.98000000000002-23.86Q 164.02-23.23  164.83-21.72Q 165.65000000000003-20.21  165.65000000000003-17.28L 165.65000000000003-17.28Q 165.65000000000003-13.78  164.64000000000001-12.24Q 163.63000000000002-10.7  160.68-10.18Q 157.73000000000002-9.65  150.96-9.65L 150.96-9.65L 150.96-3.84Q 152.88000000000002-3.31  156.10000000000002-3.31L 156.10000000000002-3.31ZM 154.94000000000003-20.54Q 152.64000000000001-20.54  151.8-19.97Q 150.96-19.39  150.96-17.76L 150.96-17.76L 150.96-12.77L 157.3-12.77Q 159.65000000000003-12.77  160.49-13.34Q 161.33-13.92  161.33-15.55L 161.33-15.55L 161.33-20.54L 154.94000000000003-20.54ZM 175.58800000000002-24L 177.268-20.21Q 179.428-22.13  180.958-23.18Q 182.49800000000002-24.24  183.83800000000002-24.72L 183.83800000000002-24.72L 184.318-20.02Q 182.738-19.54  181.02800000000002-18.7Q 179.328-17.86  178.12800000000001-16.94L 178.12800000000001-16.94L 178.12800000000001 0L 173.328 0L 173.328-24L 175.58800000000002-24ZM 198.10000000000002-3.31Q 200.06000000000003-3.31  201.94000000000003-3.58Q 203.81000000000003-3.84  206.40000000000003-4.46L 206.40000000000003-4.46L 207.02-0.96Q 205.25000000000003-0.29  202.63000000000002 0.1Q 200.02 0.48  197.23000000000002 0.48L 197.23000000000002 0.48Q 193.49 0.48  191.52-0.6Q 189.55-1.68  188.74-4.32Q 187.92000000000002-6.96  187.92000000000002-12L 187.92000000000002-12Q 187.92000000000002-16.85  188.86-19.51Q 189.79000000000002-22.18  191.95000000000002-23.33Q 194.11-24.48  198.05-24.48L 198.05-24.48Q 201.94000000000003-24.48  203.98000000000002-23.86Q 206.02-23.23  206.83-21.72Q 207.65000000000003-20.21  207.65000000000003-17.28L 207.65000000000003-17.28Q 207.65000000000003-13.78  206.64000000000001-12.24Q 205.63000000000002-10.7  202.68-10.18Q 199.73000000000002-9.65  192.96-9.65L 192.96-9.65L 192.96-3.84Q 194.88000000000002-3.31  198.10000000000002-3.31L 198.10000000000002-3.31ZM 196.94000000000003-20.54Q 194.64000000000001-20.54  193.8-19.97Q 192.96-19.39  192.96-17.76L 192.96-17.76L 192.96-12.77L 199.3-12.77Q 201.65000000000003-12.77  202.49-13.34Q 203.33-13.92  203.33-15.55L 203.33-15.55L 203.33-20.54L 196.94000000000003-20.54Z"></path></svg>